<mxfile host="drawio-plugin" modified="2024-04-30T17:57:11.272Z" agent="5.0 (Macintosh; Intel Mac OS X 10_15_7) AppleWebKit/537.36 (KHTML, like Gecko) Chrome/111.0.0.0 Safari/537.36" etag="cfMN7ooqK4GtLC3ziJX7" version="20.5.3" type="embed"><diagram id="C5RBs43oDa-KdzZeNtuy" name="Page-1"><mxGraphModel dx="1469" dy="768" grid="1" gridSize="10" guides="1" tooltips="1" connect="1" arrows="1" fold="1" page="1" pageScale="1" pageWidth="827" pageHeight="1169" math="0" shadow="0"><root><mxCell id="WIyWlLk6GJQsqaUBKTNV-0"/><mxCell id="WIyWlLk6GJQsqaUBKTNV-1" parent="WIyWlLk6GJQsqaUBKTNV-0"/><mxCell id="zkfFHV4jXpPFQw0GAbJ--0" value="User" style="swimlane;fontStyle=2;align=center;verticalAlign=top;childLayout=stackLayout;horizontal=1;startSize=30;horizontalStack=0;resizeParent=1;resizeLast=0;collapsible=1;marginBottom=0;rounded=0;shadow=0;strokeWidth=1;" parent="WIyWlLk6GJQsqaUBKTNV-1" vertex="1"><mxGeometry x="80" y="70" width="260" height="280" as="geometry"><mxRectangle x="230" y="140" width="160" height="26" as="alternateBounds"/></mxGeometry></mxCell><mxCell id="ktxs2JVf5PcJwXcDL2LW-22" value="id" style="text;align=left;verticalAlign=top;spacingLeft=4;spacingRight=4;overflow=hidden;rotatable=0;points=[[0,0.5],[1,0.5]];portConstraint=eastwest;" parent="zkfFHV4jXpPFQw0GAbJ--0" vertex="1"><mxGeometry y="30" width="260" height="26" as="geometry"/></mxCell><mxCell id="zkfFHV4jXpPFQw0GAbJ--1" value="first_name" style="text;align=left;verticalAlign=top;spacingLeft=4;spacingRight=4;overflow=hidden;rotatable=0;points=[[0,0.5],[1,0.5]];portConstraint=eastwest;" parent="zkfFHV4jXpPFQw0GAbJ--0" vertex="1"><mxGeometry y="56" width="260" height="26" as="geometry"/></mxCell><mxCell id="ktxs2JVf5PcJwXcDL2LW-0" value="last_name" style="text;align=left;verticalAlign=top;spacingLeft=4;spacingRight=4;overflow=hidden;rotatable=0;points=[[0,0.5],[1,0.5]];portConstraint=eastwest;" parent="zkfFHV4jXpPFQw0GAbJ--0" vertex="1"><mxGeometry y="82" width="260" height="26" as="geometry"/></mxCell><mxCell id="ktxs2JVf5PcJwXcDL2LW-1" value="phone_number" style="text;align=left;verticalAlign=top;spacingLeft=4;spacingRight=4;overflow=hidden;rotatable=0;points=[[0,0.5],[1,0.5]];portConstraint=eastwest;" parent="zkfFHV4jXpPFQw0GAbJ--0" vertex="1"><mxGeometry y="108" width="260" height="26" as="geometry"/></mxCell><mxCell id="ktxs2JVf5PcJwXcDL2LW-2" value="is_active" style="text;align=left;verticalAlign=top;spacingLeft=4;spacingRight=4;overflow=hidden;rotatable=0;points=[[0,0.5],[1,0.5]];portConstraint=eastwest;" parent="zkfFHV4jXpPFQw0GAbJ--0" vertex="1"><mxGeometry y="134" width="260" height="26" as="geometry"/></mxCell><mxCell id="ktxs2JVf5PcJwXcDL2LW-3" value="is_staff" style="text;align=left;verticalAlign=top;spacingLeft=4;spacingRight=4;overflow=hidden;rotatable=0;points=[[0,0.5],[1,0.5]];portConstraint=eastwest;" parent="zkfFHV4jXpPFQw0GAbJ--0" vertex="1"><mxGeometry y="160" width="260" height="26" as="geometry"/></mxCell><mxCell id="ktxs2JVf5PcJwXcDL2LW-4" value="created_at" style="text;align=left;verticalAlign=top;spacingLeft=4;spacingRight=4;overflow=hidden;rotatable=0;points=[[0,0.5],[1,0.5]];portConstraint=eastwest;" parent="zkfFHV4jXpPFQw0GAbJ--0" vertex="1"><mxGeometry y="186" width="260" height="26" as="geometry"/></mxCell><mxCell id="ktxs2JVf5PcJwXcDL2LW-19" value="role_id" style="text;align=left;verticalAlign=top;spacingLeft=4;spacingRight=4;overflow=hidden;rotatable=0;points=[[0,0.5],[1,0.5]];portConstraint=eastwest;" parent="zkfFHV4jXpPFQw0GAbJ--0" vertex="1"><mxGeometry y="212" width="260" height="26" as="geometry"/></mxCell><mxCell id="ktxs2JVf5PcJwXcDL2LW-5" value="Role" style="swimlane;fontStyle=2;align=center;verticalAlign=top;childLayout=stackLayout;horizontal=1;startSize=26;horizontalStack=0;resizeParent=1;resizeLast=0;collapsible=1;marginBottom=0;rounded=0;shadow=0;strokeWidth=1;" parent="WIyWlLk6GJQsqaUBKTNV-1" vertex="1"><mxGeometry x="440" y="60" width="260" height="182" as="geometry"><mxRectangle x="230" y="140" width="160" height="26" as="alternateBounds"/></mxGeometry></mxCell><mxCell id="ktxs2JVf5PcJwXcDL2LW-6" value="id" style="text;align=left;verticalAlign=top;spacingLeft=4;spacingRight=4;overflow=hidden;rotatable=0;points=[[0,0.5],[1,0.5]];portConstraint=eastwest;" parent="ktxs2JVf5PcJwXcDL2LW-5" vertex="1"><mxGeometry y="26" width="260" height="26" as="geometry"/></mxCell><mxCell id="ktxs2JVf5PcJwXcDL2LW-21" value="name" style="text;align=left;verticalAlign=top;spacingLeft=4;spacingRight=4;overflow=hidden;rotatable=0;points=[[0,0.5],[1,0.5]];portConstraint=eastwest;" parent="ktxs2JVf5PcJwXcDL2LW-5" vertex="1"><mxGeometry y="52" width="260" height="26" as="geometry"/></mxCell><mxCell id="ktxs2JVf5PcJwXcDL2LW-68" value="code" style="text;align=left;verticalAlign=top;spacingLeft=4;spacingRight=4;overflow=hidden;rotatable=0;points=[[0,0.5],[1,0.5]];portConstraint=eastwest;" parent="ktxs2JVf5PcJwXcDL2LW-5" vertex="1"><mxGeometry y="78" width="260" height="26" as="geometry"/></mxCell><mxCell id="ktxs2JVf5PcJwXcDL2LW-12" value=" Permission" style="swimlane;fontStyle=2;align=center;verticalAlign=top;childLayout=stackLayout;horizontal=1;startSize=26;horizontalStack=0;resizeParent=1;resizeLast=0;collapsible=1;marginBottom=0;rounded=0;shadow=0;strokeWidth=1;" parent="WIyWlLk6GJQsqaUBKTNV-1" vertex="1"><mxGeometry x="460" y="370" width="260" height="192" as="geometry"><mxRectangle x="440" y="260" width="160" height="26" as="alternateBounds"/></mxGeometry></mxCell><mxCell id="ktxs2JVf5PcJwXcDL2LW-13" value="id" style="text;align=left;verticalAlign=top;spacingLeft=4;spacingRight=4;overflow=hidden;rotatable=0;points=[[0,0.5],[1,0.5]];portConstraint=eastwest;" parent="ktxs2JVf5PcJwXcDL2LW-12" vertex="1"><mxGeometry y="26" width="260" height="26" as="geometry"/></mxCell><mxCell id="ktxs2JVf5PcJwXcDL2LW-29" value="name" style="text;align=left;verticalAlign=top;spacingLeft=4;spacingRight=4;overflow=hidden;rotatable=0;points=[[0,0.5],[1,0.5]];portConstraint=eastwest;" parent="ktxs2JVf5PcJwXcDL2LW-12" vertex="1"><mxGeometry y="52" width="260" height="26" as="geometry"/></mxCell><mxCell id="ktxs2JVf5PcJwXcDL2LW-32" value="codename" style="text;align=left;verticalAlign=top;spacingLeft=4;spacingRight=4;overflow=hidden;rotatable=0;points=[[0,0.5],[1,0.5]];portConstraint=eastwest;" parent="ktxs2JVf5PcJwXcDL2LW-12" vertex="1"><mxGeometry y="78" width="260" height="26" as="geometry"/></mxCell><mxCell id="ktxs2JVf5PcJwXcDL2LW-20" style="edgeStyle=orthogonalEdgeStyle;rounded=0;orthogonalLoop=1;jettySize=auto;html=1;entryX=0;entryY=0.5;entryDx=0;entryDy=0;" parent="WIyWlLk6GJQsqaUBKTNV-1" source="ktxs2JVf5PcJwXcDL2LW-19" target="ktxs2JVf5PcJwXcDL2LW-6" edge="1"><mxGeometry relative="1" as="geometry"/></mxCell><mxCell id="ktxs2JVf5PcJwXcDL2LW-23" value="RolePermission" style="swimlane;fontStyle=2;align=center;verticalAlign=top;childLayout=stackLayout;horizontal=1;startSize=26;horizontalStack=0;resizeParent=1;resizeLast=0;collapsible=1;marginBottom=0;rounded=0;shadow=0;strokeWidth=1;" parent="WIyWlLk6GJQsqaUBKTNV-1" vertex="1"><mxGeometry x="80" y="380" width="260" height="192" as="geometry"><mxRectangle x="440" y="260" width="160" height="26" as="alternateBounds"/></mxGeometry></mxCell><mxCell id="ktxs2JVf5PcJwXcDL2LW-24" value="id" style="text;align=left;verticalAlign=top;spacingLeft=4;spacingRight=4;overflow=hidden;rotatable=0;points=[[0,0.5],[1,0.5]];portConstraint=eastwest;" parent="ktxs2JVf5PcJwXcDL2LW-23" vertex="1"><mxGeometry y="26" width="260" height="24" as="geometry"/></mxCell><mxCell id="ktxs2JVf5PcJwXcDL2LW-26" value=" role_id" style="text;align=left;verticalAlign=top;spacingLeft=4;spacingRight=4;overflow=hidden;rotatable=0;points=[[0,0.5],[1,0.5]];portConstraint=eastwest;" parent="ktxs2JVf5PcJwXcDL2LW-23" vertex="1"><mxGeometry y="50" width="260" height="24" as="geometry"/></mxCell><mxCell id="ktxs2JVf5PcJwXcDL2LW-28" value="permission_id" style="text;align=left;verticalAlign=top;spacingLeft=4;spacingRight=4;overflow=hidden;rotatable=0;points=[[0,0.5],[1,0.5]];portConstraint=eastwest;" parent="ktxs2JVf5PcJwXcDL2LW-23" vertex="1"><mxGeometry y="74" width="260" height="24" as="geometry"/></mxCell><mxCell id="ktxs2JVf5PcJwXcDL2LW-30" style="edgeStyle=orthogonalEdgeStyle;rounded=0;orthogonalLoop=1;jettySize=auto;html=1;" parent="WIyWlLk6GJQsqaUBKTNV-1" source="ktxs2JVf5PcJwXcDL2LW-28" target="ktxs2JVf5PcJwXcDL2LW-13" edge="1"><mxGeometry relative="1" as="geometry"/></mxCell><mxCell id="ktxs2JVf5PcJwXcDL2LW-31" style="edgeStyle=orthogonalEdgeStyle;rounded=0;orthogonalLoop=1;jettySize=auto;html=1;entryX=0;entryY=0.5;entryDx=0;entryDy=0;" parent="WIyWlLk6GJQsqaUBKTNV-1" source="ktxs2JVf5PcJwXcDL2LW-26" target="ktxs2JVf5PcJwXcDL2LW-6" edge="1"><mxGeometry relative="1" as="geometry"/></mxCell><mxCell id="ktxs2JVf5PcJwXcDL2LW-33" value="Stadium" style="swimlane;fontStyle=2;align=center;verticalAlign=top;childLayout=stackLayout;horizontal=1;startSize=26;horizontalStack=0;resizeParent=1;resizeLast=0;collapsible=1;marginBottom=0;rounded=0;shadow=0;strokeWidth=1;" parent="WIyWlLk6GJQsqaUBKTNV-1" vertex="1"><mxGeometry x="70" y="610" width="260" height="310" as="geometry"><mxRectangle x="440" y="260" width="160" height="26" as="alternateBounds"/></mxGeometry></mxCell><mxCell id="ktxs2JVf5PcJwXcDL2LW-34" value="id" style="text;align=left;verticalAlign=top;spacingLeft=4;spacingRight=4;overflow=hidden;rotatable=0;points=[[0,0.5],[1,0.5]];portConstraint=eastwest;" parent="ktxs2JVf5PcJwXcDL2LW-33" vertex="1"><mxGeometry y="26" width="260" height="24" as="geometry"/></mxCell><mxCell id="ktxs2JVf5PcJwXcDL2LW-35" value="name" style="text;align=left;verticalAlign=top;spacingLeft=4;spacingRight=4;overflow=hidden;rotatable=0;points=[[0,0.5],[1,0.5]];portConstraint=eastwest;" parent="ktxs2JVf5PcJwXcDL2LW-33" vertex="1"><mxGeometry y="50" width="260" height="24" as="geometry"/></mxCell><mxCell id="ktxs2JVf5PcJwXcDL2LW-36" value="address" style="text;align=left;verticalAlign=top;spacingLeft=4;spacingRight=4;overflow=hidden;rotatable=0;points=[[0,0.5],[1,0.5]];portConstraint=eastwest;" parent="ktxs2JVf5PcJwXcDL2LW-33" vertex="1"><mxGeometry y="74" width="260" height="24" as="geometry"/></mxCell><mxCell id="ktxs2JVf5PcJwXcDL2LW-37" value="contact_number" style="text;align=left;verticalAlign=top;spacingLeft=4;spacingRight=4;overflow=hidden;rotatable=0;points=[[0,0.5],[1,0.5]];portConstraint=eastwest;" parent="ktxs2JVf5PcJwXcDL2LW-33" vertex="1"><mxGeometry y="98" width="260" height="24" as="geometry"/></mxCell><mxCell id="ktxs2JVf5PcJwXcDL2LW-38" value="booking_price_per_hour" style="text;align=left;verticalAlign=top;spacingLeft=4;spacingRight=4;overflow=hidden;rotatable=0;points=[[0,0.5],[1,0.5]];portConstraint=eastwest;" parent="ktxs2JVf5PcJwXcDL2LW-33" vertex="1"><mxGeometry y="122" width="260" height="24" as="geometry"/></mxCell><mxCell id="ktxs2JVf5PcJwXcDL2LW-39" value="description" style="text;align=left;verticalAlign=top;spacingLeft=4;spacingRight=4;overflow=hidden;rotatable=0;points=[[0,0.5],[1,0.5]];portConstraint=eastwest;" parent="ktxs2JVf5PcJwXcDL2LW-33" vertex="1"><mxGeometry y="146" width="260" height="24" as="geometry"/></mxCell><mxCell id="ktxs2JVf5PcJwXcDL2LW-40" value="lat" style="text;align=left;verticalAlign=top;spacingLeft=4;spacingRight=4;overflow=hidden;rotatable=0;points=[[0,0.5],[1,0.5]];portConstraint=eastwest;" parent="ktxs2JVf5PcJwXcDL2LW-33" vertex="1"><mxGeometry y="170" width="260" height="30" as="geometry"/></mxCell><mxCell id="ktxs2JVf5PcJwXcDL2LW-42" value="lon" style="text;align=left;verticalAlign=top;spacingLeft=4;spacingRight=4;overflow=hidden;rotatable=0;points=[[0,0.5],[1,0.5]];portConstraint=eastwest;" parent="ktxs2JVf5PcJwXcDL2LW-33" vertex="1"><mxGeometry y="200" width="260" height="30" as="geometry"/></mxCell><mxCell id="ktxs2JVf5PcJwXcDL2LW-43" value="created_at" style="text;align=left;verticalAlign=top;spacingLeft=4;spacingRight=4;overflow=hidden;rotatable=0;points=[[0,0.5],[1,0.5]];portConstraint=eastwest;" parent="ktxs2JVf5PcJwXcDL2LW-33" vertex="1"><mxGeometry y="230" width="260" height="30" as="geometry"/></mxCell><mxCell id="ktxs2JVf5PcJwXcDL2LW-44" value="&#10;updated_at&#10;" style="text;align=left;verticalAlign=top;spacingLeft=4;spacingRight=4;overflow=hidden;rotatable=0;points=[[0,0.5],[1,0.5]];portConstraint=eastwest;" parent="ktxs2JVf5PcJwXcDL2LW-33" vertex="1"><mxGeometry y="260" width="260" height="50" as="geometry"/></mxCell><mxCell id="ktxs2JVf5PcJwXcDL2LW-45" value="StadiumImage" style="swimlane;fontStyle=2;align=center;verticalAlign=top;childLayout=stackLayout;horizontal=1;startSize=26;horizontalStack=0;resizeParent=1;resizeLast=0;collapsible=1;marginBottom=0;rounded=0;shadow=0;strokeWidth=1;" parent="WIyWlLk6GJQsqaUBKTNV-1" vertex="1"><mxGeometry x="390" y="620" width="260" height="140" as="geometry"><mxRectangle x="440" y="260" width="160" height="26" as="alternateBounds"/></mxGeometry></mxCell><mxCell id="ktxs2JVf5PcJwXcDL2LW-46" value="id" style="text;align=left;verticalAlign=top;spacingLeft=4;spacingRight=4;overflow=hidden;rotatable=0;points=[[0,0.5],[1,0.5]];portConstraint=eastwest;" parent="ktxs2JVf5PcJwXcDL2LW-45" vertex="1"><mxGeometry y="26" width="260" height="24" as="geometry"/></mxCell><mxCell id="ktxs2JVf5PcJwXcDL2LW-47" value="stadium_id" style="text;align=left;verticalAlign=top;spacingLeft=4;spacingRight=4;overflow=hidden;rotatable=0;points=[[0,0.5],[1,0.5]];portConstraint=eastwest;" parent="ktxs2JVf5PcJwXcDL2LW-45" vertex="1"><mxGeometry y="50" width="260" height="24" as="geometry"/></mxCell><mxCell id="ktxs2JVf5PcJwXcDL2LW-48" value="image" style="text;align=left;verticalAlign=top;spacingLeft=4;spacingRight=4;overflow=hidden;rotatable=0;points=[[0,0.5],[1,0.5]];portConstraint=eastwest;" parent="ktxs2JVf5PcJwXcDL2LW-45" vertex="1"><mxGeometry y="74" width="260" height="24" as="geometry"/></mxCell><mxCell id="ktxs2JVf5PcJwXcDL2LW-49" value="is_main" style="text;align=left;verticalAlign=top;spacingLeft=4;spacingRight=4;overflow=hidden;rotatable=0;points=[[0,0.5],[1,0.5]];portConstraint=eastwest;" parent="ktxs2JVf5PcJwXcDL2LW-45" vertex="1"><mxGeometry y="98" width="260" height="24" as="geometry"/></mxCell><mxCell id="ktxs2JVf5PcJwXcDL2LW-56" style="edgeStyle=orthogonalEdgeStyle;rounded=0;orthogonalLoop=1;jettySize=auto;html=1;entryX=-0.009;entryY=0.788;entryDx=0;entryDy=0;entryPerimeter=0;" parent="WIyWlLk6GJQsqaUBKTNV-1" source="ktxs2JVf5PcJwXcDL2LW-34" target="ktxs2JVf5PcJwXcDL2LW-47" edge="1"><mxGeometry relative="1" as="geometry"/></mxCell><mxCell id="ktxs2JVf5PcJwXcDL2LW-57" value="Booking" style="swimlane;fontStyle=2;align=center;verticalAlign=top;childLayout=stackLayout;horizontal=1;startSize=26;horizontalStack=0;resizeParent=1;resizeLast=0;collapsible=1;marginBottom=0;rounded=0;shadow=0;strokeWidth=1;" parent="WIyWlLk6GJQsqaUBKTNV-1" vertex="1"><mxGeometry x="80" y="980" width="260" height="210" as="geometry"><mxRectangle x="440" y="260" width="160" height="26" as="alternateBounds"/></mxGeometry></mxCell><mxCell id="ktxs2JVf5PcJwXcDL2LW-58" value="id" style="text;align=left;verticalAlign=top;spacingLeft=4;spacingRight=4;overflow=hidden;rotatable=0;points=[[0,0.5],[1,0.5]];portConstraint=eastwest;" parent="ktxs2JVf5PcJwXcDL2LW-57" vertex="1"><mxGeometry y="26" width="260" height="24" as="geometry"/></mxCell><mxCell id="ktxs2JVf5PcJwXcDL2LW-59" value="user_id" style="text;align=left;verticalAlign=top;spacingLeft=4;spacingRight=4;overflow=hidden;rotatable=0;points=[[0,0.5],[1,0.5]];portConstraint=eastwest;" parent="ktxs2JVf5PcJwXcDL2LW-57" vertex="1"><mxGeometry y="50" width="260" height="24" as="geometry"/></mxCell><mxCell id="ktxs2JVf5PcJwXcDL2LW-60" value="stadium_id" style="text;align=left;verticalAlign=top;spacingLeft=4;spacingRight=4;overflow=hidden;rotatable=0;points=[[0,0.5],[1,0.5]];portConstraint=eastwest;" parent="ktxs2JVf5PcJwXcDL2LW-57" vertex="1"><mxGeometry y="74" width="260" height="24" as="geometry"/></mxCell><mxCell id="ktxs2JVf5PcJwXcDL2LW-61" value="start_time" style="text;align=left;verticalAlign=top;spacingLeft=4;spacingRight=4;overflow=hidden;rotatable=0;points=[[0,0.5],[1,0.5]];portConstraint=eastwest;" parent="ktxs2JVf5PcJwXcDL2LW-57" vertex="1"><mxGeometry y="98" width="260" height="24" as="geometry"/></mxCell><mxCell id="ktxs2JVf5PcJwXcDL2LW-62" value="end_time" style="text;align=left;verticalAlign=top;spacingLeft=4;spacingRight=4;overflow=hidden;rotatable=0;points=[[0,0.5],[1,0.5]];portConstraint=eastwest;" parent="ktxs2JVf5PcJwXcDL2LW-57" vertex="1"><mxGeometry y="122" width="260" height="24" as="geometry"/></mxCell><mxCell id="ktxs2JVf5PcJwXcDL2LW-63" value="status" style="text;align=left;verticalAlign=top;spacingLeft=4;spacingRight=4;overflow=hidden;rotatable=0;points=[[0,0.5],[1,0.5]];portConstraint=eastwest;" parent="ktxs2JVf5PcJwXcDL2LW-57" vertex="1"><mxGeometry y="146" width="260" height="24" as="geometry"/></mxCell><mxCell id="ktxs2JVf5PcJwXcDL2LW-64" value="created_date" style="text;align=left;verticalAlign=top;spacingLeft=4;spacingRight=4;overflow=hidden;rotatable=0;points=[[0,0.5],[1,0.5]];portConstraint=eastwest;" parent="ktxs2JVf5PcJwXcDL2LW-57" vertex="1"><mxGeometry y="170" width="260" height="30" as="geometry"/></mxCell><mxCell id="0" value="id" style="text;align=left;verticalAlign=top;spacingLeft=4;spacingRight=4;overflow=hidden;rotatable=0;points=[[0,0.5],[1,0.5]];portConstraint=eastwest;" vertex="1" parent="WIyWlLk6GJQsqaUBKTNV-1"><mxGeometry x="-70" y="636" width="260" height="24" as="geometry"/></mxCell><mxCell id="1" style="edgeStyle=orthogonalEdgeStyle;rounded=0;orthogonalLoop=1;jettySize=auto;html=1;" edge="1" parent="WIyWlLk6GJQsqaUBKTNV-1" source="ktxs2JVf5PcJwXcDL2LW-34" target="0"><mxGeometry relative="1" as="geometry"/></mxCell></root></mxGraphModel></diagram></mxfile>